<?xml version="1.0" encoding="utf-8"?>
<!-- Generator: Adobe Illustrator 16.0.4, SVG Export Plug-In . SVG Version: 6.00 Build 0)  -->
<!DOCTYPE svg PUBLIC "-//W3C//DTD SVG 1.1//EN" "http://www.w3.org/Graphics/SVG/1.1/DTD/svg11.dtd">
<svg version="1.1" id="Layer_1" xmlns="http://www.w3.org/2000/svg" xmlns:xlink="http://www.w3.org/1999/xlink" x="0px" y="0px"
	 width="214.53px" height="241.88px" viewBox="0 0 214.53 241.88" enable-background="new 0 0 214.53 241.88" xml:space="preserve">
<path fill="none" stroke="#5D5D5D" stroke-width="2" stroke-miterlimit="10" d="M145.739,159.053c-1.254,0-2.27-1.018-2.27-2.27
	c0-0.049-0.026-0.088-0.031-0.139c0-0.047,0.019-0.092,0.014-0.141l-4.539-36.311c-0.093-0.753-0.559-1.409-1.236-1.75
	l-16.901-8.449v-3.138c0-1.25,1.016-2.27,2.27-2.27H141.2c3.755,0,6.809-3.054,6.809-6.808c0-1.252-1.015-2.27-2.27-2.27
	c-1.254,0-2.27,1.018-2.27,2.27c0,1.252-1.02,2.27-2.27,2.27h-18.155c-0.811,0-1.582,0.168-2.305,0.43
	c0.005-0.146,0.035-0.284,0.035-0.43c0-1.569-0.222-3.085-0.598-4.539h2.867c3.755,0,6.809-3.054,6.809-6.808V70.546
	c0-1.25,1.015-2.27,2.27-2.27c1.254,0,2.27-1.015,2.27-2.27c0-1.252-1.016-2.269-2.27-2.269c-3.755,0-6.809,3.054-6.809,6.808
	v18.155c0,1.252-1.02,2.27-2.27,2.27h-4.539c-0.062,0-0.11,0.031-0.168,0.035c-1.458-2.531-3.511-4.671-5.966-6.245
	c2.332-1.645,3.866-4.344,3.866-7.407c0-3.428-1.938-6.383-4.748-7.927l6.352-6.354c0.886-0.887,0.886-2.323,0-3.209
	c-0.887-0.887-2.323-0.887-3.209,0l-8.413,8.413h-7.198l-8.413-8.413c-0.887-0.887-2.323-0.887-3.209,0
	c-0.887,0.886-0.887,2.322,0,3.209l6.352,6.354c-2.814,1.544-4.747,4.499-4.747,7.927c0,3.063,1.534,5.762,3.86,7.407
	c-2.455,1.574-4.503,3.714-5.966,6.245c-0.058-0.004-0.106-0.035-0.164-0.035h-4.539c-1.254,0-2.269-1.018-2.269-2.27V70.546
	c0-3.754-3.054-6.808-6.808-6.808c-1.255,0-2.27,1.017-2.27,2.269c0,1.254,1.015,2.27,2.27,2.27c1.25,0,2.269,1.02,2.269,2.27
	v18.155c0,3.754,3.054,6.808,6.808,6.808h2.868c-0.377,1.454-0.599,2.97-0.599,4.539c0,0.142,0.014,0.284,0.018,0.425
	c-0.718-0.259-1.48-0.425-2.288-0.425H64.04c-1.254,0-2.269-1.017-2.269-2.27c0-1.252-1.015-2.27-2.27-2.27s-2.27,1.018-2.27,2.27
	c0,3.754,3.054,6.808,6.808,6.808h18.155c1.25,0,2.27,1.02,2.27,2.27v3.138l-16.901,8.449c-0.678,0.341-1.144,0.997-1.237,1.75
	l-4.539,36.311c-0.013,0.094-0.018,0.186-0.018,0.279c0,1.252-1.02,2.27-2.27,2.27c-1.254,0-2.27,1.018-2.27,2.27
	c0,1.254,1.015,2.27,2.27,2.27c3.701,0,6.724-2.971,6.804-6.652l4.375-34.977l11.595-5.801c-1.538,3.307-2.349,7.254-2.349,11.767
	v12.646c0,0.222,0.27,22.176,22.158,27.495c0.177,0.043,0.354,0.062,0.536,0.062c0.178,0,0.359-0.02,0.537-0.062
	c21.883-5.318,22.158-27.273,22.158-27.495v-12.646c0-4.513-0.815-8.46-2.354-11.767l11.6,5.801l4.389,35.104
	c0,0.018,0.013,0.031,0.013,0.049c0.178,3.598,3.134,6.477,6.777,6.477c1.255,0,2.27-1.016,2.27-2.27
	C148.008,160.071,146.994,159.053,145.739,159.053z"/>
<circle fill="none" stroke="#5D5D5D" stroke-width="2" stroke-miterlimit="10" cx="102.376" cy="115.231" r="78.205"/>
</svg>
